<svg width="533" height="130" viewBox="0 0 533 130" fill="none" xmlns="http://www.w3.org/2000/svg">
<path d="M182.493 50.5952C186.56 50.5952 190.07 52.162 193.021 55.2958C195.932 58.3888 197.388 62.1737 197.388 66.6504C197.388 71.1679 195.932 74.9731 193.021 78.0661C190.11 81.1592 186.6 82.7057 182.493 82.7057C177.946 82.7057 174.457 80.9964 172.024 77.5778V94.1214H165.563V51.3888H172.024V55.7841C174.457 52.3248 177.946 50.5952 182.493 50.5952ZM174.716 73.6708C176.511 75.5022 178.764 76.4179 181.476 76.4179C184.187 76.4179 186.441 75.5022 188.235 73.6708C190.03 71.7987 190.927 69.4586 190.927 66.6504C190.927 63.8423 190.03 61.5225 188.235 59.6911C186.441 57.819 184.187 56.883 181.476 56.883C178.764 56.883 176.511 57.819 174.716 59.6911C172.921 61.5225 172.024 63.8423 172.024 66.6504C172.024 69.4586 172.921 71.7987 174.716 73.6708Z" fill="white"/>
<path d="M226.932 51.3888H233.393V81.9121H226.932V77.5167C224.499 80.976 221.01 82.7057 216.463 82.7057C212.356 82.7057 208.846 81.1592 205.935 78.0661C203.024 74.9731 201.568 71.1679 201.568 66.6504C201.568 62.133 203.024 58.3277 205.935 55.2347C208.846 52.1417 212.356 50.5952 216.463 50.5952C220.97 50.5952 224.459 52.3045 226.932 55.7231V51.3888ZM210.721 73.6708C212.515 75.5022 214.769 76.4179 217.48 76.4179C220.192 76.4179 222.445 75.5022 224.24 73.6708C226.035 71.7987 226.932 69.4586 226.932 66.6504C226.932 63.8423 226.035 61.5225 224.24 59.6911C222.445 57.819 220.192 56.883 217.48 56.883C214.769 56.883 212.515 57.819 210.721 59.6911C208.926 61.5225 208.029 63.8423 208.029 66.6504C208.029 69.4586 208.926 71.7987 210.721 73.6708Z" fill="white"/>
<path d="M261.202 51.3888H268.261L256.596 81.9121H249.118L237.453 51.3888H244.512L252.887 74.5865L261.202 51.3888Z" fill="white"/>
<path d="M272.352 81.9121V37.3481H278.812V81.9121H272.352Z" fill="white"/>
<path d="M300.431 82.7057C296.005 82.7057 292.276 81.1592 289.245 78.0661C286.174 74.9324 284.639 71.1272 284.639 66.6504C284.639 62.1737 286.174 58.3684 289.245 55.2347C292.276 52.1417 296.005 50.5952 300.431 50.5952C304.858 50.5952 308.587 52.1417 311.618 55.2347C314.688 58.3684 316.224 62.1737 316.224 66.6504C316.224 71.1272 314.688 74.9324 311.618 78.0661C308.587 81.1592 304.858 82.7057 300.431 82.7057ZM293.791 73.5487C295.586 75.3801 297.799 76.2958 300.431 76.2958C303.063 76.2958 305.277 75.3801 307.071 73.5487C308.866 71.7173 309.763 69.4179 309.763 66.6504C309.763 63.883 308.866 61.5836 307.071 59.7522C305.277 57.9208 303.063 57.0051 300.431 57.0051C297.799 57.0051 295.586 57.9208 293.791 59.7522C291.997 61.5836 291.099 63.883 291.099 66.6504C291.099 69.4179 291.997 71.7173 293.791 73.5487Z" fill="white"/>
<path d="M345.754 39.1795H352.215V81.9121H345.754V77.5167C343.322 80.976 339.832 82.7057 335.286 82.7057C331.178 82.7057 327.669 81.1592 324.758 78.0661C321.846 74.9731 320.391 71.1679 320.391 66.6504C320.391 62.133 321.846 58.3277 324.758 55.2347C327.669 52.1417 331.178 50.5952 335.286 50.5952C339.792 50.5952 343.282 52.3045 345.754 55.7231V39.1795ZM329.543 73.6708C331.338 75.5022 333.591 76.4179 336.303 76.4179C339.015 76.4179 341.268 75.5022 343.063 73.6708C344.857 71.7987 345.754 69.4586 345.754 66.6504C345.754 63.8423 344.857 61.5225 343.063 59.6911C341.268 57.819 339.015 56.883 336.303 56.883C333.591 56.883 331.338 57.819 329.543 59.6911C327.749 61.5225 326.851 63.8423 326.851 66.6504C326.851 69.4586 327.749 71.7987 329.543 73.6708Z" fill="white"/>
<path d="M383.434 51.3888H389.895V81.9121H383.434V77.5167C381.001 80.976 377.512 82.7057 372.966 82.7057C368.858 82.7057 365.349 81.1592 362.437 78.0661C359.526 74.9731 358.07 71.1679 358.07 66.6504C358.07 62.133 359.526 58.3277 362.437 55.2347C365.349 52.1417 368.858 50.5952 372.966 50.5952C377.472 50.5952 380.962 52.3045 383.434 55.7231V51.3888ZM367.223 73.6708C369.018 75.5022 371.271 76.4179 373.983 76.4179C376.694 76.4179 378.948 75.5022 380.742 73.6708C382.537 71.7987 383.434 69.4586 383.434 66.6504C383.434 63.8423 382.537 61.5225 380.742 59.6911C378.948 57.819 376.694 56.883 373.983 56.883C371.271 56.883 369.018 57.819 367.223 59.6911C365.428 61.5225 364.531 63.8423 364.531 66.6504C364.531 69.4586 365.428 71.7987 367.223 73.6708Z" fill="white"/>
<path d="M403.886 56.5167C405.481 52.7318 408.552 50.8394 413.098 50.8394V57.9818C410.625 57.819 408.472 58.4295 406.637 59.8132C404.803 61.1562 403.886 63.3946 403.886 66.5283V81.9121H397.425V51.3888H403.886V56.5167Z" fill="white"/>
<path d="M448.559 50.5952C452.029 50.5952 454.8 51.7144 456.874 53.9527C458.988 56.1504 460.045 59.2231 460.045 63.1708V81.9121H453.584V63.8423C453.584 61.5225 452.986 59.7725 451.789 58.5923C450.593 57.3714 448.958 56.7609 446.884 56.7609C444.611 56.7609 442.777 57.4934 441.381 58.9586C439.985 60.383 439.287 62.5807 439.287 65.5516V81.9121H432.826V39.1795H439.287V55.2958C441.281 52.162 444.372 50.5952 448.559 50.5952Z" fill="white"/>
<path d="M487.16 51.3888H493.621V81.9121H487.16V78.0051C485.166 81.1388 482.076 82.7057 477.888 82.7057C474.419 82.7057 471.627 81.6069 469.514 79.4092C467.44 77.1708 466.403 74.0778 466.403 70.1301V51.3888H472.863V69.4586C472.863 71.7783 473.462 73.5487 474.658 74.7696C475.854 75.9499 477.49 76.54 479.563 76.54C481.836 76.54 483.671 75.8278 485.067 74.4034C486.463 72.9382 487.16 70.7202 487.16 67.7493V51.3888Z" fill="white"/>
<path d="M518.105 50.5952C522.212 50.5952 525.722 52.1417 528.633 55.2347C531.544 58.3277 533 62.133 533 66.6504C533 71.1679 531.544 74.9731 528.633 78.0661C525.722 81.1592 522.212 82.7057 518.105 82.7057C513.558 82.7057 510.069 80.976 507.636 77.5167V81.9121H501.176V39.1795H507.636V55.7231C510.069 52.3045 513.558 50.5952 518.105 50.5952ZM510.328 73.6708C512.123 75.5022 514.376 76.4179 517.088 76.4179C519.8 76.4179 522.053 75.5022 523.848 73.6708C525.642 71.7987 526.539 69.4586 526.539 66.6504C526.539 63.8423 525.642 61.5225 523.848 59.6911C522.053 57.819 519.8 56.883 517.088 56.883C514.376 56.883 512.123 57.819 510.328 59.6911C508.534 61.5225 507.636 63.8423 507.636 66.6504C507.636 69.4586 508.534 71.7987 510.328 73.6708Z" fill="white"/>
<path d="M120.752 41.5037C111.519 17.2227 88.4204 0 61.3652 0C34.31 0 11.2122 17.2227 1.97882 41.5037C1.32497 43.2229 0.74144 44.978 0.230982 46.7635C-0.504043 49.3368 0.554756 52.0832 2.8437 53.3975C12.592 58.997 35.118 62.9186 61.3643 62.9186C87.6105 62.9186 110.137 58.997 119.885 53.3975C122.174 52.0823 123.233 49.3368 122.498 46.7635C121.987 44.9771 121.404 43.2229 120.75 41.5037H120.752Z" fill="white"/>
<path d="M61.3652 67.0851C35.1198 67.0851 12.5947 71.0067 2.8455 76.6053C0.555655 77.9205 -0.503144 80.6668 0.232782 83.2411C0.744143 85.0275 1.32765 86.7826 1.98151 88.5019C11.214 112.78 34.3127 130 61.3652 130C88.4177 130 111.516 112.78 120.749 88.5019C121.403 86.7817 121.987 85.0275 122.498 83.2411C123.234 80.6668 122.175 77.9205 119.885 76.6053C110.136 71.0058 87.6105 67.0851 61.3652 67.0851Z" fill="white"/>
</svg>
